<svg width="328" height="328" viewBox="0 0 328 328" fill="none" xmlns="http://www.w3.org/2000/svg">
<g filter="url(#filter0_ii)">
<path d="M207.551 315.879C208.464 319.065 211.791 320.917 214.941 319.888C235.946 313.024 255.367 301.979 272.025 287.396C290.189 271.495 304.619 251.779 314.283 229.657C323.948 207.535 328.61 183.552 327.936 159.421C327.318 137.29 322.226 115.535 312.991 95.4601C311.606 92.4496 307.986 91.2673 305.029 92.7613L271.824 109.534C268.867 111.028 267.695 114.631 269.033 117.663C275.03 131.257 278.339 145.904 278.755 160.795C279.227 177.687 275.964 194.475 269.198 209.96C262.433 225.445 252.332 239.246 239.618 250.377C228.41 260.189 215.414 267.713 201.365 272.549C198.232 273.628 196.384 276.935 197.297 280.12L207.551 315.879Z" fill="url(#paint0_radial)" fill-opacity="0.6"/>
</g>
<g filter="url(#filter1_ii)">
<path d="M30.0084 80.2727C27.1982 78.5167 23.4861 79.3665 21.8341 82.239C4.88316 111.712 -2.5132 145.777 0.755019 179.719C4.02324 213.661 17.7835 245.688 40.0467 271.385C42.2166 273.89 46.0226 274.016 48.4461 271.756L75.6525 246.385C78.0759 244.125 78.195 240.338 76.0647 237.8C61.1672 220.05 51.9586 198.163 49.7285 175.003C47.4985 151.843 52.3618 128.602 63.5987 108.335C65.2055 105.437 64.366 101.742 61.5558 99.9857L30.0084 80.2727Z" fill="url(#paint1_radial)" fill-opacity="0.5"/>
</g>
<g filter="url(#filter2_ii)">
<path d="M50.3443 273.756C47.9606 276.058 47.8869 279.865 50.2744 282.163C69.9476 301.098 94.0633 314.844 120.449 322.112C146.834 329.379 174.587 329.92 201.181 323.73C204.409 322.978 206.295 319.67 205.426 316.473L195.672 280.574C194.804 277.376 191.509 275.504 188.271 276.205C170.192 280.116 151.404 279.606 133.514 274.678C115.624 269.75 99.2252 260.568 85.6987 247.952C83.2754 245.692 79.4874 245.613 77.1038 247.915L50.3443 273.756Z" fill="url(#paint2_radial)" fill-opacity="0.25"/>
</g>
<g filter="url(#filter3_ii)">
<path d="M303.442 89.7045C306.367 88.1463 307.484 84.5059 305.82 81.6404C292.544 58.7803 273.922 39.4406 251.515 25.3023C227.415 10.0955 199.768 1.43095 171.3 0.162537C142.831 -1.10587 114.523 5.06566 89.1661 18.0689C65.5907 30.1585 45.3223 47.7654 30.0665 69.3543C28.1541 72.0605 28.9431 75.7858 31.7175 77.5979L62.8625 97.9406C65.6368 99.7527 69.3422 98.9621 71.2968 96.2862C81.8485 81.8403 95.6488 70.0364 111.616 61.8482C129.366 52.746 149.182 48.4259 169.11 49.3138C189.038 50.2017 208.391 56.2669 225.261 66.9116C240.437 76.4874 253.133 89.4717 262.358 104.799C264.067 107.638 267.687 108.755 270.612 107.197L303.442 89.7045Z" fill="url(#paint3_radial)" fill-opacity="0.8"/>
</g>
<defs>
<filter id="filter0_ii" x="196.063" y="92.116" width="131.937" height="229.057" filterUnits="userSpaceOnUse" color-interpolation-filters="sRGB">
<feFlood flood-opacity="0" result="BackgroundImageFix"/>
<feBlend mode="normal" in="SourceGraphic" in2="BackgroundImageFix" result="shape"/>
<feColorMatrix in="SourceAlpha" type="matrix" values="0 0 0 0 0 0 0 0 0 0 0 0 0 0 0 0 0 0 127 0" result="hardAlpha"/>
<feOffset/>
<feGaussianBlur stdDeviation="10"/>
<feComposite in2="hardAlpha" operator="arithmetic" k2="-1" k3="1"/>
<feColorMatrix type="matrix" values="0 0 0 0 1 0 0 0 0 0.69 0 0 0 0 0.225 0 0 0 0.4 0"/>
<feBlend mode="normal" in2="shape" result="effect1_innerShadow"/>
<feColorMatrix in="SourceAlpha" type="matrix" values="0 0 0 0 0 0 0 0 0 0 0 0 0 0 0 0 0 0 127 0" result="hardAlpha"/>
<feOffset dx="-1" dy="1"/>
<feGaussianBlur stdDeviation="0.5"/>
<feComposite in2="hardAlpha" operator="arithmetic" k2="-1" k3="1"/>
<feColorMatrix type="matrix" values="0 0 0 0 1 0 0 0 0 1 0 0 0 0 1 0 0 0 0.5 0"/>
<feBlend mode="normal" in2="effect1_innerShadow" result="effect2_innerShadow"/>
</filter>
<filter id="filter1_ii" x="-1.00024" y="79.3615" width="78.5723" height="195.001" filterUnits="userSpaceOnUse" color-interpolation-filters="sRGB">
<feFlood flood-opacity="0" result="BackgroundImageFix"/>
<feBlend mode="normal" in="SourceGraphic" in2="BackgroundImageFix" result="shape"/>
<feColorMatrix in="SourceAlpha" type="matrix" values="0 0 0 0 0 0 0 0 0 0 0 0 0 0 0 0 0 0 127 0" result="hardAlpha"/>
<feOffset/>
<feGaussianBlur stdDeviation="10"/>
<feComposite in2="hardAlpha" operator="arithmetic" k2="-1" k3="1"/>
<feColorMatrix type="matrix" values="0 0 0 0 0.5125 0 0 0 0 0.5125 0 0 0 0 0.5125 0 0 0 0.6 0"/>
<feBlend mode="normal" in2="shape" result="effect1_innerShadow"/>
<feColorMatrix in="SourceAlpha" type="matrix" values="0 0 0 0 0 0 0 0 0 0 0 0 0 0 0 0 0 0 127 0" result="hardAlpha"/>
<feOffset dx="-1" dy="1"/>
<feGaussianBlur stdDeviation="0.5"/>
<feComposite in2="hardAlpha" operator="arithmetic" k2="-1" k3="1"/>
<feColorMatrix type="matrix" values="0 0 0 0 1 0 0 0 0 1 0 0 0 0 1 0 0 0 0.5 0"/>
<feBlend mode="normal" in2="effect1_innerShadow" result="effect2_innerShadow"/>
</filter>
<filter id="filter2_ii" x="47.5198" y="246.222" width="158.118" height="82.7776" filterUnits="userSpaceOnUse" color-interpolation-filters="sRGB">
<feFlood flood-opacity="0" result="BackgroundImageFix"/>
<feBlend mode="normal" in="SourceGraphic" in2="BackgroundImageFix" result="shape"/>
<feColorMatrix in="SourceAlpha" type="matrix" values="0 0 0 0 0 0 0 0 0 0 0 0 0 0 0 0 0 0 127 0" result="hardAlpha"/>
<feOffset/>
<feGaussianBlur stdDeviation="10"/>
<feComposite in2="hardAlpha" operator="arithmetic" k2="-1" k3="1"/>
<feColorMatrix type="matrix" values="0 0 0 0 0.4125 0 0 0 0 0.4125 0 0 0 0 0.4125 0 0 0 0.2 0"/>
<feBlend mode="normal" in2="shape" result="effect1_innerShadow"/>
<feColorMatrix in="SourceAlpha" type="matrix" values="0 0 0 0 0 0 0 0 0 0 0 0 0 0 0 0 0 0 127 0" result="hardAlpha"/>
<feOffset dx="-1" dy="1"/>
<feGaussianBlur stdDeviation="0.5"/>
<feComposite in2="hardAlpha" operator="arithmetic" k2="-1" k3="1"/>
<feColorMatrix type="matrix" values="0 0 0 0 1 0 0 0 0 1 0 0 0 0 1 0 0 0 0.5 0"/>
<feBlend mode="normal" in2="effect1_innerShadow" result="effect2_innerShadow"/>
</filter>
<filter id="filter3_ii" x="28.0168" y="-3.05176e-05" width="278.578" height="108.903" filterUnits="userSpaceOnUse" color-interpolation-filters="sRGB">
<feFlood flood-opacity="0" result="BackgroundImageFix"/>
<feBlend mode="normal" in="SourceGraphic" in2="BackgroundImageFix" result="shape"/>
<feColorMatrix in="SourceAlpha" type="matrix" values="0 0 0 0 0 0 0 0 0 0 0 0 0 0 0 0 0 0 127 0" result="hardAlpha"/>
<feOffset/>
<feGaussianBlur stdDeviation="10"/>
<feComposite in2="hardAlpha" operator="arithmetic" k2="-1" k3="1"/>
<feColorMatrix type="matrix" values="0 0 0 0 1 0 0 0 0 0.69 0 0 0 0 0.225 0 0 0 0.9 0"/>
<feBlend mode="normal" in2="shape" result="effect1_innerShadow"/>
<feColorMatrix in="SourceAlpha" type="matrix" values="0 0 0 0 0 0 0 0 0 0 0 0 0 0 0 0 0 0 127 0" result="hardAlpha"/>
<feOffset dx="-1" dy="1"/>
<feGaussianBlur stdDeviation="0.5"/>
<feComposite in2="hardAlpha" operator="arithmetic" k2="-1" k3="1"/>
<feColorMatrix type="matrix" values="0 0 0 0 1 0 0 0 0 1 0 0 0 0 1 0 0 0 0.5 0"/>
<feBlend mode="normal" in2="effect1_innerShadow" result="effect2_innerShadow"/>
</filter>
<radialGradient id="paint0_radial" cx="0" cy="0" r="1" gradientUnits="userSpaceOnUse" gradientTransform="translate(163.486 164.514) rotate(90) scale(163.486)">
<stop offset="0.8125" stop-color="#FFB800" stop-opacity="0.4"/>
<stop offset="1" stop-color="#FFEF99" stop-opacity="0.2"/>
</radialGradient>
<radialGradient id="paint1_radial" cx="0" cy="0" r="1" gradientUnits="userSpaceOnUse" gradientTransform="translate(163.486 164.514) rotate(90) scale(163.486)">
<stop offset="0.828125" stop-color="#BFBFBF" stop-opacity="0.69"/>
<stop offset="0.921875" stop-color="#E4E4E4" stop-opacity="0.2"/>
</radialGradient>
<radialGradient id="paint2_radial" cx="0" cy="0" r="1" gradientUnits="userSpaceOnUse" gradientTransform="translate(163.486 164.514) rotate(90) scale(163.486)">
<stop offset="0.828125" stop-color="#A6A6A6" stop-opacity="0.69"/>
<stop offset="0.921875" stop-color="#CBCBCB" stop-opacity="0.2"/>
</radialGradient>
<radialGradient id="paint3_radial" cx="0" cy="0" r="1" gradientUnits="userSpaceOnUse" gradientTransform="translate(163.486 164.514) rotate(90) scale(163.486)">
<stop offset="0.8125" stop-color="#FFB800" stop-opacity="0.7"/>
<stop offset="1" stop-color="#FFEF99" stop-opacity="0.4"/>
</radialGradient>
</defs>
</svg>
